<?xml version="1.0"?>
<svg xmlns="http://www.w3.org/2000/svg" xmlns:xlink="http://www.w3.org/1999/xlink" xmlns:svgjs="http://svgjs.com/svgjs" version="1.1" width="512" height="512" x="0" y="0" viewBox="0 0 512 511" style="enable-background:new 0 0 512 512" xml:space="preserve" class=""><g><path xmlns="http://www.w3.org/2000/svg" d="m84.472656 299.496094h-64.128906c-7.09375 0-12.84375 5.75-12.84375 12.839844v190.644531h89.816406v-190.644531c0-7.089844-5.75-12.839844-12.84375-12.839844zm0 0" fill="#d0d0d0" data-original="#49c3e0" style="" class=""/><path xmlns="http://www.w3.org/2000/svg" d="m50.34375 299.496094h-30c-7.09375 0-12.84375 5.75-12.84375 12.839844v190.644531h30v-190.644531c0-7.089844 5.75-12.839844 12.84375-12.839844zm0 0" fill="#8391a2" data-original="#00a5c6" style="" class=""/><path xmlns="http://www.w3.org/2000/svg" d="m220.199219 249.199219h-64.128907c-7.09375 0-12.839843 5.75-12.839843 12.84375v240.9375h89.8125v-240.9375c0-7.09375-5.75-12.84375-12.84375-12.84375zm0 0" fill="#a8d2a0" data-original="#3ac7b4" style="" class=""/><path xmlns="http://www.w3.org/2000/svg" d="m186.070312 249.199219h-30c-7.09375 0-12.839843 5.75-12.839843 12.84375v240.9375h30v-240.9375c0-7.09375 5.746093-12.84375 12.839843-12.84375zm0 0" fill="#75976f" data-original="#00ad94" style="" class=""/><path xmlns="http://www.w3.org/2000/svg" d="m355.929688 198.90625h-64.128907c-7.09375 0-12.84375 5.75-12.84375 12.839844v291.234375h89.816407v-291.230469c0-7.09375-5.75-12.84375-12.84375-12.84375zm0 0" fill="#f49344" data-original="#ffcd38" style="" class=""/><path xmlns="http://www.w3.org/2000/svg" d="m321.800781 198.90625h-30c-7.09375 0-12.84375 5.75-12.84375 12.84375v291.230469h30v-291.230469c0-7.09375 5.75-12.84375 12.84375-12.84375zm0 0" fill="#b16b32" data-original="#e7b835" style="" class=""/><path xmlns="http://www.w3.org/2000/svg" d="m491.65625 148.613281h-64.128906c-7.089844 0-12.839844 5.75-12.839844 12.839844v341.527344h89.8125v-341.527344c0-7.089844-5.75-12.839844-12.84375-12.839844zm0 0" fill="#313a46" data-original="#ff8c57" style="" class=""/><path xmlns="http://www.w3.org/2000/svg" d="m457.527344 148.613281h-30c-7.089844 0-12.839844 5.75-12.839844 12.839844v341.527344h30v-341.527344c0-7.089844 5.746094-12.839844 12.839844-12.839844zm0 0" fill="#171d26" data-original="#ec6a34" style="" class=""/><path xmlns="http://www.w3.org/2000/svg" d="m481.402344 10.878906-81.136719-2.875c-6.710937-.234375-10.816406 7.285156-6.984375 12.800782l13.085938 18.839843c-44.070313 26.402344-185.085938 100.628907-377.191407 100.628907v53.886718c130.183594 0 237.726563-32.242187 305.019531-59.292968 49.230469-19.785157 84.53125-39.585938 102.988282-50.859376l11.605468 16.707032c3.828126 5.515625 12.308594 4.296875 14.429688-2.074219l25.632812-77.039063c1.714844-5.164062-2.007812-10.527343-7.449218-10.722656zm0 0" fill="#b13f48" data-original="#da5b65" style="" class=""/><path xmlns="http://www.w3.org/2000/svg" d="m97.316406 510.480469c4.140625 0 7.5-3.355469 7.5-7.5v-190.644531c0-11.214844-9.125-20.339844-20.34375-20.339844h-64.128906c-11.21875 0-20.34375 9.125-20.34375 20.339844v190.644531c0 4.144531 3.359375 7.5 7.5 7.5zm-82.316406-198.144531c0-2.945313 2.394531-5.339844 5.34375-5.339844h64.128906c2.945313 0 5.339844 2.394531 5.339844 5.339844v183.144531h-74.8125zm0 0" fill="#1a212a" data-original="#000000" style="" class=""/><path xmlns="http://www.w3.org/2000/svg" d="m156.070312 241.699219c-11.214843 0-20.339843 9.125-20.339843 20.34375v240.9375c0 4.144531 3.355469 7.5 7.5 7.5h89.8125c4.144531 0 7.5-3.355469 7.5-7.5v-240.9375c0-11.21875-9.125-20.34375-20.339844-20.34375zm69.472657 20.34375v233.4375h-74.816407v-233.4375c0-2.945313 2.398438-5.34375 5.34375-5.34375h64.128907c2.949219 0 5.34375 2.398437 5.34375 5.34375zm0 0" fill="#1a212a" data-original="#000000" style="" class=""/><path xmlns="http://www.w3.org/2000/svg" d="m376.273438 502.980469v-291.230469c0-11.21875-9.125-20.34375-20.34375-20.34375h-64.128907c-11.21875 0-20.34375 9.125-20.34375 20.34375v291.230469c0 4.144531 3.359375 7.5 7.5 7.5h89.816407c4.140624 0 7.5-3.355469 7.5-7.5zm-15-7.5h-74.816407v-283.730469c0-2.945312 2.394531-5.34375 5.34375-5.34375h64.128907c2.945312 0 5.339843 2.398438 5.339843 5.34375v283.730469zm0 0" fill="#1a212a" data-original="#000000" style="" class=""/><path xmlns="http://www.w3.org/2000/svg" d="m414.6875 510.480469h89.8125c4.140625 0 7.5-3.355469 7.5-7.5v-341.527344c0-11.214844-9.125-20.339844-20.34375-20.339844h-64.128906c-11.214844 0-20.339844 9.125-20.339844 20.339844v341.527344c0 4.144531 3.355469 7.5 7.5 7.5zm7.5-349.027344c0-2.945313 2.394531-5.339844 5.339844-5.339844h64.128906c2.945312 0 5.34375 2.394531 5.34375 5.339844v334.027344h-74.8125zm0 0" fill="#1a212a" data-original="#000000" style="" class=""/><path xmlns="http://www.w3.org/2000/svg" d="m442.628906 104.996094c3.402344 4.898437 9.183594 7.410156 15.085938 6.5625 5.902344-.851563 10.738281-4.894532 12.621094-10.550782l25.632812-77.039062c1.570312-4.726562.84375-9.78125-2-13.871094-2.839844-4.089844-7.324219-6.535156-12.300781-6.710937l-81.136719-2.875c-5.984375-.21875-11.4375 2.910156-14.296875 8.144531-2.855469 5.234375-2.515625 11.527344.886719 16.425781l8.472656 12.199219c-43.84375 25.296875-147.191406 76.371094-288.003906 91.324219-4.121094.4375-7.105469 4.132812-6.667969 8.25.410156 3.851562 3.664063 6.710937 7.449219 6.707031.265625 0 .53125-.011719.800781-.039062 151.820313-16.121094 261.109375-73.515626 301.050781-97.445313 3.667969-2.195313 4.746094-7.195313 2.304688-10.710937 0 0-12.851563-18.5-13.085938-18.835938-.320312-.460938.015625-1.039062.554688-1.03125 0 0 80.804687 2.863281 81.140625 2.875.433593.015625.730469.449219.597656.859375 0 0-25.589844 76.910156-25.632813 77.035156-.167968.511719-.855468.601563-1.15625.167969l-11.605468-16.707031c-2.265625-3.265625-6.679688-4.191407-10.066406-2.125-17.496094 10.6875-46.757813 27.007812-86.832032 44.074219-3.8125 1.625-5.585937 6.027343-3.960937 9.839843s6.027343 5.585938 9.839843 3.960938c36.59375-15.585938 64.417969-30.601563 82.707032-41.425781zm0 0" fill="#1a212a" data-original="#000000" style="" class=""/><path xmlns="http://www.w3.org/2000/svg" d="m78.875 146.121094c4.132812-.269532 7.261719-3.84375 6.988281-7.976563-.269531-4.132812-3.847656-7.257812-7.976562-6.988281-16.277344 1.070312-32.664063 1.617188-48.707031 1.617188-4.144532 0-7.5 3.355468-7.5 7.5v53.886718c0 4.140625 3.355468 7.5 7.5 7.5 124.183593 0 227.800781-29.367187 292.855468-54 3.875-1.464844 5.828125-5.796875 4.359375-9.667968-1.464843-3.875-5.796875-5.828126-9.667969-4.359376-62.574218 23.691407-161.460937 51.84375-280.046874 52.988282v-38.886719c13.957031-.144531 28.117187-.683594 42.195312-1.613281zm0 0" fill="#1a212a" data-original="#000000" style="" class=""/></g></svg>
